<svg xmlns="http://www.w3.org/2000/svg" width="121.064" height="136.006" viewBox="0 0 121.064 136.006"><defs><style>.a{fill:none;stroke:#000;stroke-miterlimit:10;stroke-width:4px;}</style></defs><g transform="translate(0 0)"><g transform="translate(96.201 27.278)"><path class="a" d="M528.751,6826.8" transform="translate(-528.751 -6826.796)"/></g><g transform="translate(11.59 101.193)"><path class="a" d="M287.638,7037.428" transform="translate(-287.638 -7037.428)"/></g><g transform="translate(79.044 75.475)"><path class="a" d="M479.86,6964.141" transform="translate(-479.86 -6964.141)"/></g><g transform="translate(79.044 75.475)"><path class="a" d="M479.86,6964.141" transform="translate(-479.86 -6964.141)"/></g><g transform="translate(0 14.943)"><path d="M315.144,6912.71a60.531,60.531,0,1,1,60.532-60.531A60.6,60.6,0,0,1,315.144,6912.71Zm0-119.66a59.128,59.128,0,1,0,59.128,59.128A59.2,59.2,0,0,0,315.144,6793.051Z" transform="translate(-254.612 -6791.647)"/></g><g transform="translate(11.084)"><g transform="translate(0 17.832)"><path d="M286.2,6800.584l.825-.706,8.326,4.239-.924.791-2.3-1.2-2.954,2.53.825,2.466-.879.752Zm2.627,4.644,2.355-2.017-1.7-.9c-.658-.347-1.357-.723-2.014-1.086l-.018.015c.259.706.514,1.445.769,2.2Z" transform="translate(-286.197 -6799.878)"/></g><g transform="translate(6.033 13.138)"><path d="M303.389,6787.126l.946-.625,4.2,6.354,3.406-2.249.565.856-4.352,2.874Z" transform="translate(-303.389 -6786.502)"/></g><g transform="translate(13.203 8.776)"><path d="M323.822,6774.589l1.01-.516,3.457,6.781,3.635-1.853.466.913-4.645,2.368Z" transform="translate(-323.822 -6774.073)"/></g><g transform="translate(25.188 3.009)"><path d="M359.607,6765.31a4.508,4.508,0,0,0,2.756.078c.981-.3,1.541-.959,1.264-1.86-.325-1.06-1.351-.945-2.529-.921-1.265.025-2.541-.107-3-1.612-.447-1.461.354-2.63,1.962-3.123a4.877,4.877,0,0,1,2.561-.11l.35,1.141a4.613,4.613,0,0,0-2.629-.03c-.924.282-1.452.881-1.193,1.726.315,1.026,1.325.9,2.416.882,1.3-.025,2.635.09,3.118,1.664.461,1.5-.372,2.734-2.026,3.24a5.312,5.312,0,0,1-2.686.112Z" transform="translate(-357.974 -6757.636)"/></g><g transform="translate(33.407 0.609)"><path d="M381.395,6751.912l1.116-.2.687,3.852.026.008,3.024-4.526,1.386-.248-3.115,4.627,4.96,3.82-1.457.259-4.754-3.686-.021.015.781,4.382-1.116.2Z" transform="translate(-381.395 -6750.8)"/></g><g transform="translate(42.595 0.274)"><path d="M407.579,6749.938l1.13-.094.713,8.61-1.13.093Z" transform="translate(-407.579 -6749.844)"/></g><g transform="translate(47.346)"><path d="M421.116,6757.7l.194-8.638,1.074.024,3.507,4.877c.486.668.972,1.358,1.446,2.05l.024-.012c0-.752.012-1.623.031-2.458l.1-4.342,1.1.024-.194,8.637-1.073-.023-3.507-4.878c-.486-.667-.972-1.358-1.446-2.049l-.025.011c0,.752-.012,1.624-.031,2.458l-.1,4.343Z" transform="translate(-421.116 -6749.063)"/></g><g transform="translate(61.751 1.016)"><path d="M465,6753.571l-2.835-.609.215-1,6.779,1.457-.215,1-2.835-.609-1.6,7.443-1.109-.238Z" transform="translate(-462.165 -6751.958)"/></g><g transform="translate(71.149 3.128)"><path d="M490.49,6763.559l-1.544-5.581,1.236.441.673,2.481c.168.632.343,1.276.5,1.93l.022.008c.522-.4,1.051-.778,1.614-1.186l2.077-1.489,1.191.426-4.7,3.34-1.315,3.687-1.068-.382Z" transform="translate(-488.946 -6757.978)"/></g><g transform="translate(77.301 7.012)"><path d="M510.4,6769.046l2.009,1.024a5.175,5.175,0,0,1,2.069,1.563,2.326,2.326,0,0,1,.146,2.472,2.436,2.436,0,0,1-2.017,1.383,5.622,5.622,0,0,1-2.773-.866l-.8-.406-1.55,3.041-1.01-.516Zm.011,4.76a3.932,3.932,0,0,0,1.985.65,1.519,1.519,0,0,0,1.091-2.375,4.409,4.409,0,0,0-1.629-1.139l-.914-.465-1.457,2.858Z" transform="translate(-506.477 -6769.046)"/></g><g transform="translate(84.667 11.511)"><path d="M532.279,6781.865l4.143,2.778-.572.853-3.2-2.146-1.462,2.18,2.8,1.88-.552.824-2.8-1.88-1.655,2.467,3.291,2.207-.572.853-4.232-2.837Z" transform="translate(-527.468 -6781.865)"/></g><g transform="translate(91.011 17.044)"><path d="M546.35,6802.091a4.523,4.523,0,0,0,1.419,2.365c.782.665,1.638.781,2.248.063.719-.845.069-1.647-.586-2.626-.7-1.052-1.279-2.2-.259-3.4.989-1.164,2.406-1.118,3.688-.029a4.885,4.885,0,0,1,1.474,2.1l-.773.91a4.621,4.621,0,0,0-1.392-2.232c-.737-.626-1.525-.747-2.1-.075-.7.818-.048,1.6.559,2.51.723,1.084,1.344,2.27.278,3.524-1.02,1.2-2.5,1.16-3.823.04a5.322,5.322,0,0,1-1.541-2.2Z" transform="translate(-545.547 -6797.634)"/></g></g><g transform="translate(60.532 75.475)"><path class="a" d="M427.106,6964.141" transform="translate(-427.106 -6964.141)"/></g><g transform="translate(18.226 75.475)"><path class="a" d="M306.55,6964.141" transform="translate(-306.55 -6964.141)"/></g><g transform="translate(60.532 75.475)"><path class="a" d="M427.106,6964.141" transform="translate(-427.106 -6964.141)"/></g><g transform="translate(7.936 35.296)"><g transform="translate(4.407)"><g transform="translate(25.19 25.108)"><path d="M406.2,6942.026a21.75,21.75,0,0,0-43.235-.153l-1.395-.158a23.154,23.154,0,0,1,46.025.162Z" transform="translate(-361.566 -6921.193)"/></g><path d="M291.185,6895.7l-1.4-.064a48.253,48.253,0,0,1,96.389-.207l-1.4.07a46.849,46.849,0,0,0-93.585.2Z" transform="translate(-289.783 -6849.646)"/><g transform="translate(6.517 6.277)"><path d="M309.747,6904.739l-1.394-.164a41.973,41.973,0,0,1,83.292-.574l.006.09-.767.009-.631.084a40.569,40.569,0,0,0-80.507.554Z" transform="translate(-308.353 -6867.533)"/></g><g transform="translate(13.243 12.554)"><path d="M328.778,6914.694h-.571l-.008-.705-.679-.141a35.708,35.708,0,0,1,69.92.016l-1.374.286a34.3,34.3,0,0,0-67.171-.015Z" transform="translate(-327.52 -6885.419)"/></g><g transform="translate(19.282 18.831)"><path d="M401.252,6927.965a28.018,28.018,0,0,0-55.143-.429l-1.38-.259a29.427,29.427,0,0,1,57.906.45Z" transform="translate(-344.729 -6903.307)"/></g></g><g transform="translate(0 40.422)"><path d="M295.562,6988.4a11.731,11.731,0,0,1-9.4-4.707,7.266,7.266,0,1,1,0-14.148,11.754,11.754,0,0,1,18.815,0,7.266,7.266,0,1,1,0,14.148A11.765,11.765,0,0,1,295.562,6988.4Zm-8.828-6.334.292.428a10.351,10.351,0,0,0,17.083,0l.292-.425.493.151a5.861,5.861,0,1,0,0-11.2l-.493.152-.292-.426a10.352,10.352,0,0,0-17.083,0l-.292.428-.494-.153a5.938,5.938,0,0,0-1.748-.262,5.862,5.862,0,1,0,1.748,11.46Z" transform="translate(-277.226 -6964.833)"/></g><g transform="translate(69.256 40.422)"><path d="M492.916,6988.4a11.731,11.731,0,0,1-9.4-4.707,7.266,7.266,0,1,1,0-14.148,11.754,11.754,0,0,1,18.815,0,7.266,7.266,0,1,1,0,14.148A11.763,11.763,0,0,1,492.916,6988.4Zm-8.828-6.334.292.428a10.351,10.351,0,0,0,17.083,0l.292-.425.493.151a5.936,5.936,0,0,0,1.748.264,5.862,5.862,0,1,0,0-11.724,5.944,5.944,0,0,0-1.748.262l-.493.152-.292-.426a10.351,10.351,0,0,0-17.083,0l-.292.428-.495-.153a5.937,5.937,0,0,0-1.748-.262,5.862,5.862,0,1,0,1.748,11.46Z" transform="translate(-474.58 -6964.833)"/></g></g></g></svg>