<svg xmlns="http://www.w3.org/2000/svg" width="135.454" height="136.636" viewBox="0 0 135.454 136.636"><g transform="translate(0 0)"><g transform="translate(0 38.4)"><path d="M3027.206,4664.421l.973.519a6.347,6.347,0,0,0,1.566-1.9c.824-1.547.595-2.919-.665-3.59-1.106-.59-2.046-.209-3.311.931-1.112,1.026-1.734,1.156-2.338.833-.656-.35-.727-1.2-.241-2.115a4.744,4.744,0,0,1,1.38-1.553l-.932-.5a5.364,5.364,0,0,0-1.356,1.631c-.753,1.415-.583,2.847.667,3.513,1.127.6,2.086.257,3.332-.894,1.091-1.011,1.672-1.214,2.359-.848s.689,1.249.2,2.171A5.542,5.542,0,0,1,3027.206,4664.421Z" transform="translate(-3021.831 -4657.047)"/></g><g transform="translate(3.719 29.389)"><path d="M3040.453,4640.772a2.9,2.9,0,0,0-.631-4.4l-4.43-3.144-.646.908,4.364,3.1a2.106,2.106,0,1,1-2.438,3.436l-4.363-3.1-.645.909,4.43,3.144A2.891,2.891,0,0,0,3040.453,4640.772Z" transform="translate(-3031.663 -4633.224)"/></g><g transform="translate(10.753 23.051)"><path d="M3054.4,4621.244c1.31-.7,1.924-.752,2.5-.225s.352,1.382-.356,2.15a5.537,5.537,0,0,1-2.032,1.332l.811.747a6.31,6.31,0,0,0,1.995-1.445c1.188-1.29,1.312-2.674.262-3.642-.921-.85-1.927-.718-3.439.066-1.335.712-1.969.681-2.472.217-.546-.5-.4-1.348.3-2.107a4.747,4.747,0,0,1,1.727-1.155l-.777-.716a5.356,5.356,0,0,0-1.724,1.237c-1.085,1.178-1.282,2.607-.24,3.567C3051.886,4622.134,3052.9,4622.043,3054.4,4621.244Z" transform="translate(-3050.261 -4616.465)"/></g><g transform="translate(15.399 16.569)"><path d="M3065.079,4602.444l4.864,5.6.841-.731-4.864-5.6,1.927-1.675-.617-.709-4.687,4.072.617.71Z" transform="translate(-3062.544 -4599.329)"/></g><g transform="translate(24.354 13.288)"><path d="M3088.847,4599.176l-.386-1.989,3.066-2.116,1.733,1.06.974-.672-8-4.8-.019.013,1.653,9.181Zm1.825-4.629-2.4,1.654c-.257-1.374-.471-2.438-.761-3.677C3088.559,4593.242,3089.479,4593.819,3090.673,4594.547Z" transform="translate(-3086.22 -4590.655)"/></g><g transform="translate(30.607 9.04)"><g transform="translate(0 0)"><g transform="translate(0)"><rect width="1.114" height="8.357" transform="translate(0 0.535) rotate(-28.706)"/></g></g></g><g transform="translate(35.553 4.447)"><path d="M3120.09,4577.091l-2.2-5.346.357.167,6.94,3.233.01,0-3.231-7.858-1.031.424,2.2,5.346-.357-.167-6.94-3.233-.011,0,3.232,7.857Z" transform="translate(-3115.827 -4567.282)"/></g><g transform="translate(47.198 2.184)"><path d="M3148.1,4568.193l3.613-.909,1.253,1.6,1.148-.29-5.811-7.3-.022.005-1.662,9.179,1.148-.289Zm.744-4.7c.729,1.038,1.388,1.9,2.251,3l-2.824.711C3148.507,4565.828,3148.68,4564.755,3148.841,4563.494Z" transform="translate(-3146.615 -4561.297)"/></g><g transform="translate(56.185 0.498)"><path d="M3174.178,4565.138c1.649-.189,2.649-1.251,2.487-2.657a2.151,2.151,0,0,0-1.6-1.861,1.838,1.838,0,0,0,.846-1.791c-.164-1.418-1.346-2.147-2.983-1.959l-2.549.293.956,8.3Zm1.351-2.574a1.468,1.468,0,0,1-1.42,1.671l-1.81.208-.339-2.94,2.029-.233A1.338,1.338,0,0,1,3175.529,4562.564Zm-2.422-4.8a1.382,1.382,0,0,1,1.675,1.256,1.219,1.219,0,0,1-.719,1.368l-2.2.253-.311-2.7Z" transform="translate(-3170.374 -4556.841)"/></g><g transform="translate(65.826 0)"><path d="M3200.592,4563.018l-3.6-.059.122-7.417-1.114-.018-.137,8.356,4.712.078Z" transform="translate(-3195.865 -4555.523)"/></g><g transform="translate(72.232 0.094)"><path d="M3214.895,4564.405l1.108.121.359-3.3,3.545-4.68-1.234-.135-2.75,3.692-1.888-4.2-1.234-.135,2.454,5.334Z" transform="translate(-3212.801 -4555.771)"/></g><g transform="translate(83.901 2.764)"><path d="M3249.212,4569.806c.349-1.2-.217-2.045-1.594-3.049-1.232-.877-1.487-1.458-1.3-2.116.207-.713,1.028-.959,2.02-.671a4.754,4.754,0,0,1,1.8,1.03l.294-1.014a5.349,5.349,0,0,0-1.876-.992c-1.539-.446-2.906.016-3.3,1.376-.355,1.227.179,2.095,1.562,3.076,1.214.859,1.532,1.387,1.316,2.134s-1.08.931-2.083.64a5.537,5.537,0,0,1-2.1-1.224l-.307,1.059a6.322,6.322,0,0,0,2.183,1.141C3247.52,4571.685,3248.814,4571.178,3249.212,4569.806Z" transform="translate(-3243.652 -4562.83)"/></g><g transform="translate(92.416 6.102)"><path d="M3268.711,4579.927a4.319,4.319,0,1,0-2.145-5.692A4.224,4.224,0,0,0,3268.711,4579.927Zm-1.117-5.232a3.155,3.155,0,1,1,1.54,4.289A3.134,3.134,0,0,1,3267.593,4574.694Z" transform="translate(-3266.164 -4571.656)"/></g><g transform="translate(102.3 10.343)"><path d="M3293.91,4591.75a2.9,2.9,0,0,0,4.373-.826l2.944-4.564-.937-.6-2.9,4.5a2.107,2.107,0,1,1-3.541-2.284l2.9-4.5-.936-.6-2.944,4.565A2.891,2.891,0,0,0,3293.91,4591.75Z" transform="translate(-3292.297 -4582.868)"/></g><g transform="translate(109.399 16.574)"><path d="M3311.911,4606.413l2.131-2.485,1.322,1.133-.818,3.612.943.808.815-3.857a2.4,2.4,0,0,0,2.822-.67c1.042-1.216.825-2.657-.568-3.851l-2.053-1.76-5.439,6.346Zm4.828-5.631,1.181,1.012a1.606,1.606,0,0,1,.36,2.434,1.557,1.557,0,0,1-2.389.077l-1.252-1.072Z" transform="translate(-3311.065 -4599.342)"/></g><g transform="translate(117.123 24.389)"><path d="M3332.679,4627.3a5.378,5.378,0,0,0,2.137,1.5l.787-.7a5.564,5.564,0,0,1-2.155-1.483,3.285,3.285,0,0,1,4.894-4.384,5.492,5.492,0,0,1,1.191,2.269l.786-.706a5.247,5.247,0,0,0-1.208-2.253,4.319,4.319,0,1,0-6.432,5.763Z" transform="translate(-3331.488 -4620.006)"/></g><g transform="translate(121.801 31.015)"><path d="M3346.862,4646.631l.775-.533-2.375-3.452,2.324-1.6,1.921,2.793.775-.533-1.921-2.792,2.238-1.541,2.276,3.309.775-.533-2.908-4.227-6.886,4.737Z" transform="translate(-3343.855 -4637.523)"/></g><g transform="translate(126.32 38.872)"><path d="M3363.257,4658.3l-7.455,3.777,1.107,2.185c1.2,2.37,3.489,3.189,5.726,2.057s2.92-3.484,1.708-5.875Zm-1.136,7a3.091,3.091,0,0,1-4.378-1.477l-.6-1.181,5.777-2.927.577,1.139A3.11,3.11,0,0,1,3362.121,4665.3Z" transform="translate(-3355.802 -4658.296)"/></g><g transform="translate(5.966 13.622)"><path d="M3099.112,4591.538a61.507,61.507,0,1,0,61.508,61.507A61.577,61.577,0,0,0,3099.112,4591.538Zm0,121.5a59.995,59.995,0,1,1,59.995-60A60.063,60.063,0,0,1,3099.112,4713.04Z" transform="translate(-3037.604 -4591.538)"/></g><g transform="translate(45.508 39.804)"><path d="M3185.648,4681.187l-.1-.469-.47-.1a7.188,7.188,0,1,1-12.342-4.659,17.624,17.624,0,0,0-8.214-14.937l-.406-.258-.406.258a14.262,14.262,0,0,1-20.556,19.6l-.47.1-.1.469a9.723,9.723,0,1,1,.574,18.443l-.47.1-.1.47a17.691,17.691,0,0,0,17.231,21.553,17.831,17.831,0,0,0,3.549-.363v12.916a.757.757,0,1,0,1.513,0v-12.916a17.827,17.827,0,0,0,3.549.363,17.691,17.691,0,0,0,17.23-21.553l-.1-.47-.47-.1a3.434,3.434,0,1,1-4.18-2.072A17.625,17.625,0,0,0,3185.648,4681.187Zm-21.536-18.627a16.174,16.174,0,1,1-7.107,13.394A16.113,16.113,0,0,1,3164.113,4662.56Zm-20.157,19.432a16.173,16.173,0,1,1,4.445,14.5A16.106,16.106,0,0,1,3143.955,4681.992Zm18.941,37.958a16.174,16.174,0,1,1-4.445-14.5A16.111,16.111,0,0,1,3162.9,4719.949Zm-3.375-15.565a17.843,17.843,0,0,0-2.134-1.813,17.6,17.6,0,0,0,2.421.17,17.937,17.937,0,0,0,3.548-.362v7.737A17.684,17.684,0,0,0,3159.521,4704.384Zm24.749-3.376a16.174,16.174,0,1,1-14.5,4.445A16.112,16.112,0,0,1,3184.27,4701.008Zm-15.566,3.376a17.684,17.684,0,0,0-3.835,5.732v-7.737a17.935,17.935,0,0,0,3.548.363,1.407,1.407,0,1,1,.287,1.643Zm-3.376-3.451a16.173,16.173,0,1,1,14.5-4.445A16.111,16.111,0,0,1,3165.329,4700.933Z" transform="translate(-3142.147 -4660.759)"/></g></g></svg>