<svg xmlns="http://www.w3.org/2000/svg" width="133.919" height="136.654" viewBox="0 0 133.919 136.654"><g transform="translate(0 0)"><g transform="translate(0 37.509)"><path d="M3483.773,4660.05c.806-1.451.525-2.882-.712-3.57a2.15,2.15,0,0,0-2.447.221,1.838,1.838,0,0,0-.964-1.731c-1.248-.693-2.529-.156-3.329,1.284l-1.246,2.243,7.3,4.06Zm-7.383-2.058.761-1.369a1.382,1.382,0,0,1,2-.63,1.22,1.22,0,0,1,.693,1.381l-1.077,1.938Zm3.136,1.743.992-1.786a1.339,1.339,0,0,1,1.949-.5,1.468,1.468,0,0,1,.531,2.128l-.885,1.592Z" transform="translate(-3475.075 -4654.669)"/></g><g transform="translate(5.01 29.385)"><path d="M3495.7,4640.817l-2.632-1.945,1.034-1.4,3.66.555.738-1-3.905-.534a2.4,2.4,0,0,0-.871-2.765c-1.288-.952-2.708-.631-3.8.844l-1.607,2.174,6.719,4.966Zm-5.964-4.407.924-1.25a1.606,1.606,0,0,1,2.4-.535,1.557,1.557,0,0,1,.249,2.377l-.979,1.326Z" transform="translate(-3488.32 -4633.188)"/></g><g transform="translate(12.333 21.143)"><path d="M3515.073,4618.763a4.318,4.318,0,1,0-6.082,0A4.224,4.224,0,0,0,3515.073,4618.763Zm-5.4-5.35a3.287,3.287,0,1,1,.113,4.555A3.124,3.124,0,0,1,3509.671,4613.413Z" transform="translate(-3507.68 -4611.4)"/></g><g transform="translate(21.716 15.293)"><path d="M3535.493,4604.332l-.474-1.971,2.97-2.251,1.779.983.943-.715-8.2-4.444-.018.015,2.061,9.1Zm1.617-4.708-2.321,1.76c-.319-1.361-.579-2.416-.925-3.64C3534.94,4598.414,3535.886,4598.951,3537.11,4599.625Z" transform="translate(-3532.488 -4595.933)"/></g><g transform="translate(27.949 9.282)"><path d="M3555.179,4588c2.321-1.3,3.047-3.615,1.825-5.8s-3.6-2.777-5.938-1.472l-2.1,1.172,4.073,7.3Zm-3.665-6.448a3.239,3.239,0,1,1,3.2,5.633l-1.155.645-3.156-5.656Z" transform="translate(-3548.968 -4580.041)"/></g><g transform="translate(41.393 3.55)"><path d="M3587.671,4569.808c1.487.013,2.05.264,2.3,1s-.355,1.381-1.345,1.716a5.543,5.543,0,0,1-2.423.192l.353,1.044a6.318,6.318,0,0,0,2.443-.31c1.662-.56,2.436-1.716,1.979-3.069-.4-1.187-1.345-1.555-3.05-1.593-1.512-.017-2.053-.349-2.271-1-.238-.7.3-1.375,1.275-1.7a4.76,4.76,0,0,1,2.07-.184l-.337-1a5.343,5.343,0,0,0-2.107.258c-1.518.512-2.376,1.671-1.923,3.013C3585.042,4569.385,3585.975,4569.793,3587.671,4569.808Z" transform="translate(-3584.512 -4564.885)"/></g><g transform="translate(49.634 1.529)"><path d="M3609.106,4568.112l-.667-3.181,1.42-.3c1.738-.365,2.587-1.516,2.259-3.083s-1.569-2.279-3.308-1.915l-2.51.526,1.716,8.178Zm-.137-7.549a1.543,1.543,0,0,1,2.034,1.221,1.5,1.5,0,0,1-1.281,1.917l-1.476.31-.663-3.158Z" transform="translate(-3606.3 -4559.542)"/></g><g transform="translate(58.818 0.082)"><path d="M3636.57,4564.029l-.079-.937-4.175.353-.237-2.811,3.377-.285-.079-.937-3.377.285-.228-2.707,4-.337-.079-.937-5.112.431.7,8.328Z" transform="translate(-3630.582 -4555.716)"/></g><g transform="translate(67.049 0)"><path d="M3656.574,4564.135a5.384,5.384,0,0,0,2.564-.492l.041-1.056a5.562,5.562,0,0,1-2.565.516,3.286,3.286,0,0,1,.258-6.566,5.481,5.481,0,0,1,2.458.724l.042-1.056a5.257,5.257,0,0,0-2.459-.7,4.32,4.32,0,1,0-.339,8.631Z" transform="translate(-3652.343 -4555.5)"/></g><g transform="translate(77.129 0.597)"><path d="M3680.26,4565.744l1.1.186,1.239-7.313,2.518.427.157-.927-6.123-1.038-.157.927,2.507.424Z" transform="translate(-3678.992 -4557.079)"/></g><g transform="translate(84.542 2.496)"><path d="M3700.6,4567.288l1.667.5.715,3.632,1.189.357-.818-3.856a2.4,2.4,0,0,0,2.308-1.755c.46-1.534-.323-2.762-2.079-3.289l-2.59-.777-2.4,8,1.067.32Zm1.191-3.969,1.49.447c1.111.333,1.6,1.111,1.314,2.079a1.557,1.557,0,0,1-2.153,1.038l-1.578-.474Z" transform="translate(-3698.591 -4562.098)"/></g><g transform="translate(93.568 5.544)"><path d="M3724.446,4579.221a2.9,2.9,0,0,0,4.209-1.445l2.258-4.94-1.014-.463-2.224,4.866a2.107,2.107,0,1,1-3.832-1.751l2.224-4.866-1.013-.463-2.258,4.939A2.892,2.892,0,0,0,3724.446,4579.221Z" transform="translate(-3722.456 -4570.158)"/></g><g transform="translate(101.519 10.324)"><path d="M3744.379,4590.482l3.08-4.671.038.345.416,3.9,3.761-1.149.331-.1-3.08,4.671.9.594,4.677-7.093-.01-.006-5.717,1.778-.61-5.95-.01-.006-4.676,7.093Z" transform="translate(-3743.478 -4582.794)"/></g><g transform="translate(114.585 21.535)"><path d="M3781.593,4621.279l.748-.746a5.554,5.554,0,0,1-2.232-1.364,3.285,3.285,0,0,1,4.649-4.642,5.487,5.487,0,0,1,1.311,2.2l.748-.746a5.245,5.245,0,0,0-1.328-2.184,4.318,4.318,0,1,0-6.11,6.1A5.369,5.369,0,0,0,3781.593,4621.279Z" transform="translate(-3778.022 -4612.437)"/></g><g transform="translate(119.646 27.777)"><path d="M3793.146,4636.3c1.009,1.318,2.434,1.631,3.558.771a2.15,2.15,0,0,0,.773-2.333,1.838,1.838,0,0,0,1.972-.194c1.134-.869,1.152-2.256.15-3.565l-1.56-2.037-6.636,5.082Zm4.831-5.951.952,1.244a1.382,1.382,0,0,1-.218,2.083,1.221,1.221,0,0,1-1.543.085l-1.348-1.76Zm-1.606,3.8a1.339,1.339,0,0,1-.322,1.986,1.468,1.468,0,0,1-2.163-.361l-1.108-1.447,2.349-1.8Z" transform="translate(-3791.403 -4628.938)"/></g><g transform="translate(124.761 35.742)"><path d="M3813.377,4652.084l-1.188-2.088-7.263,4.13,1.21,2.128c1.313,2.31,3.638,3.018,5.818,1.779S3814.7,4654.415,3813.377,4652.084Zm-1.986,4.961a3.092,3.092,0,0,1-4.444-1.265l-.655-1.151,5.63-3.2.631,1.11A3.111,3.111,0,0,1,3811.391,4657.046Z" transform="translate(-3804.925 -4649.997)"/></g><g transform="translate(6.08 13.639)"><path d="M3552.656,4591.559a61.508,61.508,0,1,0,61.508,61.508A61.577,61.577,0,0,0,3552.656,4591.559Zm0,121.5a59.994,59.994,0,1,1,60-59.994A60.062,60.062,0,0,1,3552.656,4713.061Z" transform="translate(-3491.149 -4591.559)"/></g><g transform="translate(34.42 49.689)"><path d="M3616.03,4687.544l-.574-.672-.576.671a115.947,115.947,0,0,0-7.548,10.118,115.961,115.961,0,0,0-7.506-10.117l-.574-.672-.576.671a115.6,115.6,0,0,0-7.549,10.118,115.883,115.883,0,0,0-7.507-10.117l-.574-.672-.576.671a116.121,116.121,0,0,0-8.359,11.358c-5.544,8.621-8.243,15.636-8.021,20.852a16.439,16.439,0,0,0,5.372,12.481,17.754,17.754,0,0,0,10.95,4.484c.231,0,.444-.01.639-.027a16.435,16.435,0,0,0,8.066-2.062,16.978,16.978,0,0,0,7.5,2.09c.231,0,.445-.01.639-.027a16.439,16.439,0,0,0,8.066-2.062,16.984,16.984,0,0,0,7.5,2.089c.231,0,.444-.01.639-.027a17.528,17.528,0,0,0,11.577-4.491,16.451,16.451,0,0,0,5.369-12.447c.141-5.266-2.582-12.3-8.093-20.9A116.138,116.138,0,0,0,3616.03,4687.544Zm-16.782,1.675a118.869,118.869,0,0,1,7.175,9.837c-3.675,5.736-6.081,10.757-7.2,15.007-1.142-4.264-3.546-9.285-7.192-15.005A118.6,118.6,0,0,1,3599.249,4689.22Zm8.08,11.251c3.856,6.147,7.513,13.529,7.359,19.247a14.994,14.994,0,0,1-4.868,11.356,15.76,15.76,0,0,1-2.5,1.82,15.949,15.949,0,0,1-2.445-1.789,14.772,14.772,0,0,1-4.866-11.379v-.025C3599.767,4714.035,3603.439,4706.639,3607.329,4700.471Zm-8.846,19.247a15,15,0,0,1-4.868,11.356,15.644,15.644,0,0,1-2.5,1.819,15.93,15.93,0,0,1-2.446-1.788,14.775,14.775,0,0,1-4.866-11.379v-.025c-.245-5.666,3.426-13.062,7.316-19.229C3594.979,4706.618,3598.636,4714,3598.483,4719.718Zm-15.372,15.46-.073-.006-.073.007a15.769,15.769,0,0,1-10.5-4.075,14.777,14.777,0,0,1-4.866-11.379v-.025c-.455-10.49,12.522-26.924,15.441-30.48a118.84,118.84,0,0,1,7.176,9.837c-5.476,8.549-8.143,15.512-7.923,20.7a16.438,16.438,0,0,0,5.371,12.481,17.356,17.356,0,0,0,1.908,1.469A14.544,14.544,0,0,1,3583.111,4735.178Zm16.205,0-.072-.006-.073.007a14.138,14.138,0,0,1-6.509-1.469,17.02,17.02,0,0,0,1.963-1.51,5.129,5.129,0,1,1,9.246.034,17.182,17.182,0,0,0,1.909,1.469A14.545,14.545,0,0,1,3599.316,4735.178Zm26.71-4.1a16.043,16.043,0,0,1-10.505,4.1l-.072-.006-.073.007a14.138,14.138,0,0,1-6.509-1.469,17.03,17.03,0,0,0,1.964-1.51,16.446,16.446,0,0,0,5.37-12.447c.14-5.223-2.542-12.187-7.964-20.695a118.517,118.517,0,0,1,7.217-9.838c2.9,3.547,15.724,19.886,15.44,30.5A15,15,0,0,1,3626.026,4731.074Z" transform="translate(-3566.077 -4686.872)"/></g></g></svg>