<svg xmlns="http://www.w3.org/2000/svg" xmlns:xlink="http://www.w3.org/1999/xlink" width="90.188" height="14.92" viewBox="0 0 90.188 14.92"><defs><style>.a{fill:#00964a;}.a,.b{stroke:#00964a;}.b{fill:none;}.c{clip-path:url(#a);}.d{clip-path:url(#e);}</style><clipPath id="a"><rect class="a" width="15.493" height="14.92"/></clipPath><clipPath id="e"><rect class="b" width="15.493" height="14.92"/></clipPath></defs><g transform="translate(0 0)"><g class="c"><path class="a" d="M2.9,14.817l1.827-5.59L0,5.8l.025-.074H5.859L7.713,0,9.566,5.715h5.926c-.56.485-1.1.825-1.608,1.2s-1.032.748-1.549,1.122L10.713,9.218c.572,1.882,1.236,3.729,1.84,5.7L7.713,11.4,2.952,14.867l-.054-.05"/></g></g><g transform="translate(18.674 0)"><g class="c"><path class="a" d="M2.9,14.817l1.827-5.59L0,5.8l.025-.074H5.859L7.713,0,9.566,5.715h5.926c-.56.485-1.1.825-1.608,1.2s-1.032.748-1.549,1.122L10.713,9.218c.572,1.882,1.236,3.729,1.84,5.7L7.713,11.4,2.952,14.867l-.054-.05"/></g></g><g transform="translate(37.348 0)"><g class="c"><path class="a" d="M2.9,14.817l1.827-5.59L0,5.8l.025-.074H5.859L7.713,0,9.566,5.715h5.926c-.56.485-1.1.825-1.608,1.2s-1.032.748-1.549,1.122L10.713,9.218c.572,1.882,1.236,3.729,1.84,5.7L7.713,11.4,2.952,14.867l-.054-.05"/></g></g><g transform="translate(56.022 0)"><g class="c"><path class="a" d="M2.9,14.817l1.827-5.59L0,5.8l.025-.074H5.859L7.713,0,9.566,5.715h5.926c-.56.485-1.1.825-1.608,1.2s-1.032.748-1.549,1.122L10.713,9.218c.572,1.882,1.236,3.729,1.84,5.7L7.713,11.4,2.952,14.867l-.054-.05"/></g></g><g transform="translate(74.696 0)"><g class="d"><path class="b" d="M2.9,14.817l1.827-5.59L0,5.8l.025-.074H5.859L7.713,0,9.566,5.715h5.926c-.56.485-1.1.825-1.608,1.2s-1.032.748-1.549,1.122L10.713,9.218c.572,1.882,1.236,3.729,1.84,5.7L7.713,11.4,2.952,14.867l-.054-.05"/></g></g></svg>