<svg xmlns="http://www.w3.org/2000/svg" width="138.465" height="136.447" viewBox="0 0 138.465 136.447"><g transform="translate(0 0)"><g transform="translate(8.545 13.431)"><path d="M349.65,3791.092a61.508,61.508,0,1,0,61.508,61.508A61.577,61.577,0,0,0,349.65,3791.092Zm0,121.5a59.995,59.995,0,1,1,59.995-59.995A60.062,60.062,0,0,1,349.65,3912.594Z" transform="translate(-288.143 -3791.092)"/></g><g transform="translate(43.791 92.426)"><path d="M433.605,4000.1a43.066,43.066,0,0,1-51.083,1.028.757.757,0,0,0-.874,1.235,44.579,44.579,0,0,0,52.88-1.064.757.757,0,1,0-.923-1.2Z" transform="translate(-381.329 -3999.945)"/></g><g transform="translate(80.599 56.5)"><path d="M487.026,3904.959a9.427,9.427,0,0,0-8.289,4.933.756.756,0,1,0,1.329.722,7.918,7.918,0,0,1,13.889-.054.756.756,0,1,0,1.324-.732A9.437,9.437,0,0,0,487.026,3904.959Z" transform="translate(-478.645 -3904.959)"/></g><g transform="translate(42.776 56.878)"><path d="M380.066,3911.614a7.918,7.918,0,0,1,13.889-.054.756.756,0,1,0,1.324-.732,9.43,9.43,0,0,0-16.543.065.756.756,0,1,0,1.329.722Z" transform="translate(-378.645 -3905.959)"/></g><g transform="translate(0 39.788)"><path d="M274.889,3867.912l-6.008-7.136-.515,1.079,1.862,2.161c.944,1.093,1.635,1.938,2.509,2.882-1.284-.085-2.374-.091-3.818-.137l-2.852-.087-.515,1.079,9.327.181Z" transform="translate(-265.552 -3860.776)"/></g><g transform="translate(5.118 32.47)"><path d="M288.982,3845.816l-.79-.51-2.273,3.521-2.37-1.53,1.839-2.848-.79-.51-1.839,2.848-2.282-1.473,2.179-3.375-.79-.51-2.783,4.311,7.022,4.534Z" transform="translate(-279.082 -3841.429)"/></g><g transform="translate(11.473 24.757)"><path d="M297.44,3828.744a4.237,4.237,0,0,0,6.137-.577,6.151,6.151,0,0,0,1.279-2.5l-2.448-2.067-.7.834,1.924,1.624a4.443,4.443,0,0,1-.832,1.454,3.291,3.291,0,0,1-5.007-4.271,5.5,5.5,0,0,1,2.1-1.511l-.816-.689a5.442,5.442,0,0,0-2.055,1.517A4.264,4.264,0,0,0,297.44,3828.744Z" transform="translate(-295.885 -3821.036)"/></g><g transform="translate(19.347 19.381)"><path d="M320.4,3814.941l-.638-1.924,2.769-2.492,1.855.829.88-.792-8.547-3.739-.017.015,2.817,8.894Zm-2.175-6.427c1.128.578,2.115,1.032,3.392,1.6l-2.166,1.948C319.019,3810.734,318.671,3809.7,318.224,3808.514Z" transform="translate(-316.702 -3806.824)"/></g><g transform="translate(25.146 11.037)"><path d="M337.69,3794.746l-3.219-4.8.383.092,7.443,1.785.01-.007-4.732-7.055-.925.62,3.219,4.8-.383-.092-7.444-1.785-.01.007,4.732,7.055Z" transform="translate(-332.033 -3784.762)"/></g><g transform="translate(39.093 5.759)"><path d="M370.791,3775.207a2.782,2.782,0,0,0-.756,2.8c.481,1.157,1.868,1.649,3.53.957a3.443,3.443,0,0,0,1.885-1.753l.955.42,1.168-.486-1.794-.774a4.54,4.54,0,0,0-.5-2.912l-.89.37a3.859,3.859,0,0,1,.446,2.128l-2.648-1.135a2.8,2.8,0,0,0,.779-2.9,2.151,2.151,0,0,0-3.91,1.754A2.881,2.881,0,0,0,370.791,3775.207Zm3.774,1.635a2.511,2.511,0,0,1-1.333,1.3c-1.008.419-1.943.167-2.268-.615a1.975,1.975,0,0,1,.6-1.983Zm-3.955-5.031a1.144,1.144,0,0,1,1.517.563c.326.782-.3,1.624-.729,2.115-.742-.332-1.207-.6-1.457-1.2A1.144,1.144,0,0,1,370.609,3771.812Z" transform="translate(-368.909 -3770.808)"/></g><g transform="translate(52.06 1.189)"><path d="M408.476,3767.293a5.375,5.375,0,0,0,2.368-1.1l-.215-1.034a5.563,5.563,0,0,1-2.364,1.119,3.285,3.285,0,0,1-1.336-6.432,5.489,5.489,0,0,1,2.56.108l-.215-1.034a5.251,5.251,0,0,0-2.554-.086,4.318,4.318,0,1,0,1.756,8.454Z" transform="translate(-403.192 -3758.724)"/></g><g transform="translate(62.001 0.231)"><path d="M431.191,3764.656l-.238-3.264,1.737-.127,1.962,3.14,1.239-.09L433.753,3761a2.4,2.4,0,0,0,1.532-2.463c-.117-1.6-1.286-2.467-3.114-2.334l-2.7.2.606,8.335Zm1.013-7.51c1.158-.084,1.9.467,1.97,1.474a1.557,1.557,0,0,1-1.642,1.738l-1.644.12-.234-3.219Z" transform="translate(-429.473 -3756.192)"/></g><g transform="translate(71.358)"><path d="M457.24,3764.259a2.9,2.9,0,0,0,3.409-2.859l.335-5.421-1.112-.069-.33,5.34a2.106,2.106,0,1,1-4.2-.26l.33-5.34-1.112-.069L454.22,3761A2.891,2.891,0,0,0,457.24,3764.259Z" transform="translate(-454.212 -3755.582)"/></g><g transform="translate(80.971 1.03)"><path d="M485.014,3766.6l-4.111-.808.544-2.767,3.325.654.182-.922-3.325-.654.524-2.664,3.94.774.181-.922-5.033-.99-1.612,8.2,5.2,1.023Z" transform="translate(-479.629 -3758.304)"/></g><g transform="translate(89.034 3.1)"><path d="M505.717,3772.28l-3.424-1.1,2.272-7.059-1.06-.341-2.56,7.954,4.485,1.443Z" transform="translate(-500.944 -3763.778)"/></g><g transform="translate(96.637 5.121)"><path d="M522.068,3778.242l2.969-6.8,2.34,1.022.376-.861-5.691-2.486-.376.862,2.33,1.018-2.969,6.8Z" transform="translate(-521.047 -3769.12)"/></g><g transform="translate(104.225 8.896)"><path d="M542.064,3788.4l1.7-2.85,5.174-2.779-1.066-.636-4.039,2.212.032-4.6-1.066-.637.009,5.873-1.7,2.851Z" transform="translate(-541.107 -3779.101)"/></g><g transform="translate(112.636 17.075)"><path d="M566.607,3804.979l2.4,2.069.614-.712-2.4-2.069,1.811-2.1,2.848,2.455.614-.711-3.692-3.183-5.456,6.329.844.727Z" transform="translate(-563.346 -3800.727)"/></g><g transform="translate(118.397 23.003)"><path d="M579.326,3822.841l2.423-2.2,1.17,1.289-1.261,3.481.835.919,1.289-3.726a2.4,2.4,0,0,0,2.883-.312c1.186-1.077,1.149-2.534-.084-3.891l-1.818-2-6.187,5.618Zm5.491-4.986,1.046,1.152a1.606,1.606,0,0,1,.054,2.459,1.557,1.557,0,0,1-2.38-.222l-1.108-1.22Z" transform="translate(-578.577 -3816.398)"/></g><g transform="translate(124.115 30.476)"><path d="M596.741,3845.3l.769-.54-2.406-3.429,2.309-1.62,1.947,2.774.769-.54-1.947-2.773,2.223-1.56,2.307,3.287.769-.54-2.946-4.2-6.84,4.8Z" transform="translate(-593.694 -3836.155)"/></g><g transform="translate(128.675 38.227)"><path d="M605.752,3860.579l2.5,4.682.83-.442-1.971-3.7,2.489-1.327,1.595,2.992.83-.442-1.594-2.992,2.4-1.277,1.889,3.544.83-.442-2.414-4.527Z" transform="translate(-605.752 -3856.648)"/></g></g></svg>