<svg xmlns="http://www.w3.org/2000/svg" width="151.079" height="136.786" viewBox="0 0 151.079 136.786"><g transform="translate(0 0)"><g transform="translate(0 64.065)"><path d="M703.89,3924.833c-1.243-.161-1.988.528-2.768,2.043-.677,1.352-1.213,1.693-1.892,1.6-.737-.094-1.106-.868-.974-1.893a4.739,4.739,0,0,1,.742-1.94l-1.048-.136a5.346,5.346,0,0,0-.691,2.006c-.2,1.589.461,2.869,1.866,3.049,1.266.163,2.042-.5,2.8-2.016.663-1.33,1.136-1.726,1.907-1.627s1.087.924.953,1.96a5.549,5.549,0,0,1-.888,2.262l1.094.141a6.32,6.32,0,0,0,.792-2.333C706.006,3926.217,705.306,3925.015,703.89,3924.833Z" transform="translate(-697.222 -3924.512)"/></g><g transform="translate(1.957 52.638)"><path d="M713.508,3894.687a5.253,5.253,0,0,1-.195,1.187,5.855,5.855,0,0,1-2.282,3.032,4.292,4.292,0,1,0-.29,1.268,6.561,6.561,0,0,0,3.52-3.942,5.241,5.241,0,0,0,.209-1.28Zm-3.62,4.782a3.288,3.288,0,1,1-2.33-3.906A3.135,3.135,0,0,1,709.888,3899.469Z" transform="translate(-702.396 -3894.3)"/></g><g transform="translate(4.895 41.903)"><path d="M719.233,3872.359a2.9,2.9,0,0,0-1.465-4.2l-4.951-2.237-.459,1.016,4.877,2.2a2.107,2.107,0,1,1-1.735,3.84l-4.877-2.2-.459,1.016,4.951,2.236A2.892,2.892,0,0,0,719.233,3872.359Z" transform="translate(-710.165 -3865.92)"/></g><g transform="translate(9.724 33.603)"><path d="M732.829,3848.246l-.8-.5-2.215,3.557-2.394-1.491,1.791-2.877-.8-.5-1.791,2.877-2.305-1.435,2.123-3.409-.8-.5-2.712,4.354,7.093,4.417Z" transform="translate(-722.932 -3843.977)"/></g><g transform="translate(16.514 27.957)"><path d="M745.771,3836.51l-.923-1.8,2.358-2.884,1.96.537.749-.916-9.017-2.395-.015.018,4.139,8.361Zm-3.128-6.021c1.2.4,2.248.7,3.6,1.066l-1.844,2.255C743.766,3832.563,743.265,3831.6,742.643,3830.489Z" transform="translate(-740.883 -3829.048)"/></g><g transform="translate(21.584 18.07)"><path d="M760.805,3812.672l-1.751-1.874-.014-2.259,4.766,1.327.949-.887-5.7-1.522-.043-4.55-1.009.943.143,5.981-3.051-3.264-.814.761,5.705,6.1Z" transform="translate(-754.286 -3802.907)"/></g><g transform="translate(28.295 12.283)"><path d="M779.355,3796.808l.905-.65-1.936-2.7-.486-5.853-1.009.725.42,4.586-4.211-1.865-1.009.724,5.39,2.333Z" transform="translate(-772.029 -3787.607)"/></g><g transform="translate(41.469 6.253)"><path d="M813.113,3780a5.383,5.383,0,0,0,2.05-1.615l-.449-.956a5.565,5.565,0,0,1-2.04,1.636,3.285,3.285,0,0,1-2.79-5.948,5.476,5.476,0,0,1,2.515-.487l-.449-.957a5.26,5.26,0,0,0-2.505.508,4.319,4.319,0,1,0,3.667,7.819Z" transform="translate(-806.86 -3771.666)"/></g><g transform="translate(50.058 4.142)"><path d="M836.637,3772.914l-.291-.894-3.421,1.114-2.3-7.051-1.059.346,2.589,7.944Z" transform="translate(-829.568 -3766.083)"/></g><g transform="translate(58.136 1.105)"><path d="M857.769,3766.216l-.185-.921-4.109.823-.554-2.766,3.323-.666-.185-.922-3.323.666-.533-2.663,3.938-.788-.185-.922-5.03,1.008,1.641,8.194Z" transform="translate(-850.927 -3758.056)"/></g><g transform="translate(66.791 0.224)"><path d="M875.672,3762.478l3.716-.258.95,1.8,1.181-.082-4.431-8.208-.023,0-3.257,8.741,1.181-.082Zm1.561-4.494c.533,1.15,1.031,2.115,1.686,3.35l-2.906.2C876.493,3760.223,876.852,3759.2,877.233,3757.984Z" transform="translate(-873.809 -3755.726)"/></g><g transform="translate(76.975 0)"><path d="M902.255,3757.922l.246.308,4.775,5.984h.012l.6-8.475-1.111-.08-.411,5.766-.246-.308-4.775-5.984h-.012l-.6,8.475,1.111.079Z" transform="translate(-900.732 -3755.134)"/></g><g transform="translate(90.686 2.151)"><g transform="translate(0 0)"><g transform="translate(0)"><rect width="8.355" height="1.114" transform="translate(0 8.124) rotate(-76.482)"/></g></g></g><g transform="translate(95.269 3.439)"><path d="M952.117,3767.159l.152.363,2.961,7.061.011,0,2.894-7.989-1.048-.38-1.969,5.436-.152-.364-2.961-7.061-.011,0-2.894,7.989,1.048.379Z" transform="translate(-949.1 -3764.226)"/></g><g transform="translate(105.563 8.878)"><path d="M978.69,3786.771a6.151,6.151,0,0,0,2.715.736l1.518-2.821-.961-.517-1.193,2.218a4.447,4.447,0,0,1-1.595-.515,3.291,3.291,0,0,1,3.149-5.779,5.509,5.509,0,0,1,1.911,1.741l.506-.941a5.447,5.447,0,0,0-1.907-1.7,4.319,4.319,0,1,0-4.143,7.577Z" transform="translate(-976.316 -3778.606)"/></g><g transform="translate(112.959 13.135)"><path d="M996.771,3797.273l1.925-2.646,1.408,1.024-.527,3.664,1,.73.5-3.909a2.4,2.4,0,0,0,2.758-.892c.943-1.295.611-2.713-.872-3.792l-2.187-1.591-4.916,6.757Zm4.362-6,1.258.914a1.606,1.606,0,0,1,.553,2.4,1.557,1.557,0,0,1-2.376.267l-1.333-.969Z" transform="translate(-995.87 -3789.862)"/></g><g transform="translate(119.906 19.158)"><path d="M1018.1,3815.5l.644-.685-3.052-2.869,1.931-2.055,2.469,2.321.644-.686-2.469-2.32,1.86-1.979,2.926,2.75.644-.685-3.737-3.513-5.722,6.088Z" transform="translate(-1014.237 -3805.784)"/></g><g transform="translate(125.784 25.748)"><path d="M1031.323,3830.384c1.679,2.061,4.089,2.373,6.032.789s2.11-4.024.417-6.1l-1.517-1.863-6.478,5.277Zm5.713-4.729a3.239,3.239,0,1,1-4.992,4.126l-.835-1.026,5.021-4.09Z" transform="translate(-1029.777 -3823.208)"/></g><g transform="translate(131.741 34.316)"><g transform="translate(0 0)"><g transform="translate(0)"><rect width="8.357" height="1.114" transform="translate(0 4.55) rotate(-32.987)"/></g></g></g><g transform="translate(134.255 39.054)"><path d="M1056.026,3861.494l1.562,3.008.834-.433-1.562-3.008,2.411-1.252,1.851,3.564.835-.433-2.365-4.553-7.418,3.852,2.445,4.708.835-.433-1.932-3.719Z" transform="translate(-1052.174 -3858.386)"/></g><g transform="translate(137.886 47.433)"><path d="M1071.484,3885.739l-5.447,1.94.184-.349,3.563-6.778,0-.011-8.006,2.852.374,1.05,5.447-1.94-.184.349-3.563,6.778,0,.011,8.006-2.852Z" transform="translate(-1061.774 -3880.541)"/></g><g transform="translate(141.312 57.253)"><path d="M1078.847,3912.774l.92-.194-1.284-6.077-.92.195.526,2.488-7.258,1.534.23,1.091,7.258-1.534Z" transform="translate(-1070.831 -3906.503)"/></g><g transform="translate(142.404 66.432)"><path d="M1079.882,3930.78c-1.271.12-1.882.935-2.287,2.581-.354,1.444-.728,1.934-1.5,2.006s-1.263-.662-1.36-1.7a5.535,5.535,0,0,1,.369-2.4l-1.1.1a6.324,6.324,0,0,0-.259,2.449c.164,1.744,1.11,2.763,2.531,2.629,1.248-.117,1.822-.952,2.25-2.6.364-1.467.811-1.917,1.492-1.981.74-.069,1.269.6,1.365,1.632a4.744,4.744,0,0,1-.3,2.056l1.052-.1a5.354,5.354,0,0,0,.233-2.108C1082.223,3931.75,1081.292,3930.648,1079.882,3930.78Z" transform="translate(-1073.719 -3930.77)"/></g><g transform="translate(13.877 13.77)"><path d="M795.42,3791.541a61.508,61.508,0,1,0,61.507,61.507A61.577,61.577,0,0,0,795.42,3791.541Zm0,121.5a59.995,59.995,0,1,1,59.994-60A60.063,60.063,0,0,1,795.42,3913.043Z" transform="translate(-733.912 -3791.541)"/></g><g transform="translate(48.514 54.276)"><path d="M878.5,3924.639l-10.091-1.808a16.632,16.632,0,0,1-13.384-13.384l-1.808-10.091a.879.879,0,0,0-1.73,0l-1.808,10.091a16.631,16.631,0,0,1-13.384,13.384l-10.091,1.808a.879.879,0,0,0,0,1.73l10.091,1.808a16.63,16.63,0,0,1,13.384,13.384l1.808,10.091a.879.879,0,0,0,1.73,0l1.808-10.091a16.631,16.631,0,0,1,13.384-13.384l10.091-1.808a.879.879,0,0,0,0-1.73Zm-10.357,2.049a18.151,18.151,0,0,0-14.607,14.607l-1.183,6.606-1.184-6.606a18.15,18.15,0,0,0-14.606-14.607l-6.606-1.184,6.606-1.184a18.15,18.15,0,0,0,14.606-14.606l1.184-6.606,1.183,6.606a18.151,18.151,0,0,0,14.607,14.606l6.606,1.184Z" transform="translate(-825.485 -3898.632)"/></g><g transform="translate(85.456 52.868)"><path d="M940.684,3903.217l-3.221-.577a4.79,4.79,0,0,1-3.855-3.856l-.577-3.218a.8.8,0,0,0-1.566,0l-.577,3.22a4.79,4.79,0,0,1-3.855,3.855l-3.223.577a.8.8,0,0,0,0,1.566l3.221.577a4.79,4.79,0,0,1,3.855,3.855l.577,3.22a.8.8,0,0,0,1.566,0l.577-3.22a4.79,4.79,0,0,1,3.855-3.855l3.222-.578a.8.8,0,0,0,0-1.565Zm-8.436,5.165a4.382,4.382,0,0,1,0-8.763,4.382,4.382,0,0,1,0,8.763Z" transform="translate(-923.157 -3894.908)"/></g><g transform="translate(55.846 41.995)"><path d="M847.676,3873.666a2.963,2.963,0,0,1,2.384,2.384l.387,2.16h0a.781.781,0,0,0,.77.643h0l.656-.023.5-2.781a2.963,2.963,0,0,1,2.384-2.384l2.161-.387a.782.782,0,0,0,.643-.773l-.023-.656-2.781-.5a2.963,2.963,0,0,1-2.384-2.385l-.386-2.156a.782.782,0,0,0-.768-.648l-.661.02-.5,2.785a2.963,2.963,0,0,1-2.385,2.385l-2.156.386a.781.781,0,0,0-.648.768l.02.661Zm3.542-3.372a2.214,2.214,0,0,1,0,4.429,2.214,2.214,0,1,1,0-4.429Z" transform="translate(-844.871 -3866.162)"/></g></g></svg>