<svg xmlns="http://www.w3.org/2000/svg" width="123.015" height="135.68" viewBox="0 0 123.015 135.68"><g transform="translate(0 0)"><g transform="translate(0 14.178)"><path d="M1243.889,3794.079a61.577,61.577,0,0,0-61.507,61.508,58.871,58.871,0,0,0,18.024,42.745,63.458,63.458,0,0,0,86.012.9l.054.054,1.07-1.07-.026-.026a58.869,58.869,0,0,0,17.88-42.6A61.577,61.577,0,0,0,1243.889,3794.079Zm0,119.989a60.644,60.644,0,0,1-42.432-16.825,57.369,57.369,0,0,1-17.562-41.657,59.79,59.79,0,0,1,17.041-41.839l48.62,48.62a15.35,15.35,0,0,0-2.777,4.022l-2.515-1.317a.756.756,0,1,0-.7,1.34l2.633,1.379a15.5,15.5,0,0,0-.895,4.486h-5.153a.756.756,0,1,0,0,1.512h5.153a15.5,15.5,0,0,0,.889,4.471l-4.754,1.978a.756.756,0,0,0,.581,1.4l4.753-1.977a15.349,15.349,0,0,0,2.484,3.724l-2.483,2.258a.756.756,0,1,0,1.018,1.119l2.534-2.305a15.349,15.349,0,0,0,3.811,2.551l-.846,1.99a.756.756,0,0,0,1.392.592l.852-2.006a15.512,15.512,0,0,0,4.433.875v3.771a.757.757,0,0,0,1.513,0v-3.771a15.508,15.508,0,0,0,4.48-.893l.866,2a.756.756,0,1,0,1.389-.6l-.858-1.983a15.358,15.358,0,0,0,4.033-2.782l13.959,13.959A60.718,60.718,0,0,1,1243.889,3914.068Zm11.441-53.889a.757.757,0,0,0,.081-.029c.009,0,.016-.011.025-.016a14.018,14.018,0,0,1,10.55-.008.743.743,0,0,0,.072.036c.015.006.03.008.045.012a14.024,14.024,0,0,1,7.468,7.454c.006.018.009.036.016.053s.017.025.024.039a14.022,14.022,0,0,1,.019,10.579c-.01.021-.023.042-.033.064s-.008.032-.013.048a13.849,13.849,0,0,1-2.225,3.621l-19.635-19.635A13.853,13.853,0,0,1,1255.331,3860.179Zm14.99,22.952a13.93,13.93,0,0,1-19.694-19.694Zm16.127,13.988-14.016-14.015a15.335,15.335,0,0,0,2.273-3.5l2.279.878a.756.756,0,1,0,.544-1.411l-2.249-.867a15.5,15.5,0,0,0,.866-4.41h5.153a.756.756,0,1,0,0-1.512h-5.153a15.5,15.5,0,0,0-.888-4.47l1.436-.6a.757.757,0,0,0-.58-1.4l-1.436.6a15.355,15.355,0,0,0-2.509-3.751l3.639-3.639a.756.756,0,0,0-1.07-1.07l-3.639,3.639a15.327,15.327,0,0,0-3.815-2.54l1.164-3.113a.757.757,0,0,0-1.417-.53l-1.148,3.069a15.526,15.526,0,0,0-4.4-.863v-4.6a.757.757,0,0,0-1.513,0v4.6a15.515,15.515,0,0,0-4.51.9l-1.4-2.875a.756.756,0,1,0-1.359.664l1.365,2.8a15.327,15.327,0,0,0-3.4,2.224l-48.648-48.648a59.962,59.962,0,0,1,101.878,42.91A57.37,57.37,0,0,1,1286.447,3897.119Z" transform="translate(-1182.382 -3794.079)"/></g><g transform="translate(71.415 96.682)"><path d="M1375.032,4019.888a3.839,3.839,0,1,0-3.839-3.839A3.843,3.843,0,0,0,1375.032,4019.888Zm0-6.165a2.326,2.326,0,1,1-2.326,2.326A2.329,2.329,0,0,1,1375.032,4013.723Z" transform="translate(-1371.193 -4012.21)"/></g><g transform="translate(14.702 12.368)"><path d="M1227.118,3799.271l-3.374-4.694.386.08,7.5,1.542.01-.007-4.96-6.9-.9.65,3.374,4.694-.386-.08-7.5-1.542-.009.007,4.96,6.9Z" transform="translate(-1221.253 -3789.294)"/></g><g transform="translate(25.074 7.59)"><path d="M1254.93,3784.84a4.317,4.317,0,1,0-5.77-1.917A4.222,4.222,0,0,0,1254.93,3784.84Zm-3.433-6.782a3.287,3.287,0,1,1-1.333,4.356A3.125,3.125,0,0,1,1251.5,3778.058Z" transform="translate(-1248.674 -3776.662)"/></g><g transform="translate(39.062 2.614)"><path d="M1290.639,3771.632c1.6-.44,2.425-1.643,2.049-3.008a2.149,2.149,0,0,0-1.871-1.592,1.839,1.839,0,0,0,.56-1.9c-.379-1.377-1.659-1.915-3.248-1.478l-2.473.681,2.219,8.057Zm.94-2.751a1.467,1.467,0,0,1-1.147,1.869l-1.757.484-.785-2.854,1.969-.542A1.338,1.338,0,0,1,1291.579,3768.881Zm-4.642-3.958,1.511-.417a1.382,1.382,0,0,1,1.848.984,1.22,1.22,0,0,1-.5,1.462l-2.138.588Z" transform="translate(-1285.656 -3763.506)"/></g><g transform="translate(48.622 0.615)"><path d="M1312.657,3765.057l3.692-.506,1.069,1.729,1.173-.161-4.972-7.9-.023,0-2.665,8.943,1.173-.161Zm1.258-4.59c.609,1.112,1.17,2.043,1.907,3.23l-2.887.4C1313.326,3762.75,1313.616,3761.7,1313.915,3760.466Z" transform="translate(-1310.931 -3758.221)"/></g><g transform="translate(58.755)"><path d="M1344.66,3760.886c.041-2.507-1.719-4.208-4.4-4.251l-2.4-.04-.137,8.356,2.449.041A4.065,4.065,0,0,0,1344.66,3760.886Zm-5.7-3.333,1.277.021a3.24,3.24,0,1,1-.06,6.477l-1.323-.021Z" transform="translate(-1337.721 -3756.595)"/></g><g transform="translate(71.641 1.151)"><path d="M1377.3,3766.426c.23-1.233-.416-2.014-1.884-2.877-1.312-.752-1.622-1.305-1.5-1.979.136-.73.929-1.055,1.944-.866a4.742,4.742,0,0,1,1.9.849l.193-1.038a5.342,5.342,0,0,0-1.964-.8c-1.575-.293-2.889.3-3.148,1.692-.234,1.255.383,2.066,1.855,2.907,1.291.736,1.66,1.23,1.518,1.994s-.983,1.033-2.01.842a5.536,5.536,0,0,1-2.208-1.013l-.2,1.084a6.316,6.316,0,0,0,2.284.921C1375.8,3768.46,1377.036,3767.829,1377.3,3766.426Z" transform="translate(-1371.79 -3759.639)"/></g><g transform="translate(80.639 2.437)"><path d="M1395.848,3771.774l1.066.325,2.165-7.1,2.443.745.274-.9-5.941-1.812-.274.9,2.432.742Z" transform="translate(-1395.581 -3763.037)"/></g><g transform="translate(87.554 5.486)"><path d="M1415.859,3780.165a2.9,2.9,0,0,0,4.206-1.455l2.247-4.945-1.014-.461-2.214,4.871a2.107,2.107,0,1,1-3.836-1.743l2.213-4.871-1.014-.461-2.248,4.945A2.892,2.892,0,0,0,1415.859,3780.165Z" transform="translate(-1413.862 -3771.099)"/></g><g transform="translate(95.513 10.335)"><path d="M1435.85,3791.605l1.955-3.145,2.691,1.673.5-.8-2.691-1.673,1.465-2.356,3.194,1.986.5-.8-4.14-2.575-4.413,7.1Z" transform="translate(-1434.904 -3783.919)"/></g><g transform="translate(102.012 15.172)"><path d="M1452.96,3803.945l2.3-2.9,2.482,1.971.585-.736-2.481-1.971,1.726-2.172,2.945,2.339.585-.736-3.818-3.033-5.2,6.545Z" transform="translate(-1452.087 -3796.706)"/></g><g transform="translate(15.98 66.231)"><path d="M1241.387,3947.136a16.524,16.524,0,0,0,9.06-2.7l1.727,2.178a.757.757,0,1,0,1.186-.94l-1.684-2.124a4.345,4.345,0,0,0,.887-1.085l2.381.248c.026,0,.053,0,.079,0a.757.757,0,0,0,.077-1.51l-2.006-.208a.1.1,0,0,0,0-.014,4.346,4.346,0,0,0-.373-2.612l1.021-.729a.757.757,0,1,0-.879-1.231l-1.022.73a4.347,4.347,0,0,0-2.35-1.2c-.107-.017-.213-.027-.32-.037l.292-1.758a.756.756,0,1,0-1.492-.249l-.357,2.142a4.392,4.392,0,0,0-1.391.659l-.28.2a7.844,7.844,0,0,1-5.02,1.459l.25-1.5a.756.756,0,1,0-1.492-.249l-.253,1.52a7.827,7.827,0,0,1-4.152-2.612l.737-.873a.756.756,0,0,0-1.156-.975l-.577.684a4.389,4.389,0,0,0-4.826-.689l-1.2-1.65a.757.757,0,0,0-1.223.891l1.194,1.639a4.346,4.346,0,0,0-1.195,2.346,4.435,4.435,0,0,0-.054.636l-1.716.288a.756.756,0,0,0,.124,1.5.747.747,0,0,0,.126-.01l1.692-.284a4.4,4.4,0,0,0,.584,1.135h0a16.937,16.937,0,0,0,1.659,1.979l-2.141,2.485a.756.756,0,0,0,1.146.987l2.1-2.437a16.459,16.459,0,0,0,3.4,2.241l-.809,1.519a.756.756,0,1,0,1.336.711l.865-1.624a16.814,16.814,0,0,0,2.929.825l-.505,3.034a.756.756,0,0,0,.622.871.814.814,0,0,0,.125.01.757.757,0,0,0,.745-.632l.511-3.069C1240.312,3947.108,1240.85,3947.136,1241.387,3947.136Zm-12.367-7.861h0a2.869,2.869,0,0,1,4.669-3.336l.02.027,0,0a9.416,9.416,0,0,0,13.116,2.159l.28-.2a2.859,2.859,0,0,1,1.275-.509l.041,0a2.87,2.87,0,0,1,2.02,5.183l-.28.2a15.063,15.063,0,0,1-11.3,2.619,15.28,15.28,0,0,1-3.5-1.025l0,0a.72.72,0,0,0-.091-.038A15.065,15.065,0,0,1,1229.02,3939.275Z" transform="translate(-1224.63 -3931.7)"/></g><g transform="translate(31.995 90.466)"><path d="M1282.712,3998.773l-1.235.384a3.349,3.349,0,0,0-1.329-1.3c-.094-.05-.189-.1-.286-.136l.174-1.071a.756.756,0,1,0-1.493-.243l-.172,1.055a3.369,3.369,0,0,0-.793.135,12.518,12.518,0,0,0-1.595.6l-1.1-1.878a.756.756,0,1,0-1.3.767l1.073,1.827a12.132,12.132,0,0,0-2.032,1.577l-.706-.752a.756.756,0,1,0-1.1,1.035l.783.835a12.307,12.307,0,0,0-1.048,1.519l-1.776-.956a.756.756,0,1,0-.716,1.333l1.808.972a12.255,12.255,0,0,0-.621,1.8l-.715-.154a.756.756,0,1,0-.32,1.479l.75.162a12.179,12.179,0,0,0,.236,4.394l-1.714.61a.756.756,0,1,0,.507,1.425l1.666-.593a3.355,3.355,0,0,0,.4.632l-.667,1.448a.756.756,0,1,0,1.374.633l.521-1.131a3.353,3.353,0,0,0,1.4.315c.075,0,.15-.012.224-.017l.213.71a.757.757,0,0,0,1.449-.436l-.212-.7a3.351,3.351,0,0,0,1.3-1.332l.01-.021.94.505a.756.756,0,0,0,.716-1.333l-1.265-.68a3.369,3.369,0,0,0-.142-1.042l-.071-.238a5.454,5.454,0,0,1,.085-3.411l.753.4a.756.756,0,1,0,.717-1.332l-.776-.417a5.445,5.445,0,0,1,2.358-1.9l.335.557a.757.757,0,1,0,1.3-.78l-.225-.373a3.367,3.367,0,0,0,1.533-3.062l1.244-.386a.757.757,0,0,0-.449-1.446Zm-2.521,2.942a1.849,1.849,0,0,1-1.1.9l-.025.009-.017.006a7.01,7.01,0,0,0-4.655,8.72l.072.238a1.862,1.862,0,0,1-3.567,1.073l-.072-.238a10.75,10.75,0,0,1,7.191-13.375h0a1.874,1.874,0,0,1,.539-.08,1.864,1.864,0,0,1,1.638,2.746Z" transform="translate(-1266.972 -3995.775)"/></g><g transform="translate(45.544 35.412)"><path d="M1335.705,3862.843l-6.755.205a9.859,9.859,0,0,0-.625-2.366l1.61-.856a.757.757,0,0,0-.711-1.336l-1.571.835a10.02,10.02,0,0,0-4.672-4.091l.467-1.689a.756.756,0,1,0-1.458-.4l-.444,1.605a9.955,9.955,0,0,0-6.076.372l-1.683-4.414a.757.757,0,0,0-1.414.539l1.73,4.534a9.91,9.91,0,0,0-1.939,1.474l-2.215-1.958a.756.756,0,1,0-1,1.133l2.215,1.958a9.859,9.859,0,0,0-2.014,5.816l-5.6.032a.757.757,0,0,0,0,1.513h0l5.679-.033a9.9,9.9,0,0,0,.612,2.355l-.977.465a.756.756,0,0,0,.326,1.439.749.749,0,0,0,.325-.074l.99-.472a9.906,9.906,0,0,0,1.446,1.891l-3.944,4.461a.756.756,0,1,0,1.134,1l3.946-4.463a9.922,9.922,0,0,0,2.084,1.211l-.343,1.052a.756.756,0,0,0,.484.954.747.747,0,0,0,.235.038.758.758,0,0,0,.719-.521l.336-1.031a9.888,9.888,0,0,0,2.472.318q.311,0,.625-.019a9.965,9.965,0,0,0,3.092-.695l2.188,4.213a.756.756,0,1,0,1.343-.7l-2.173-4.184a9.9,9.9,0,0,0,1.869-1.433l2.215,1.959a.757.757,0,0,0,1-1.133l-2.215-1.958a9.859,9.859,0,0,0,2.014-5.835l6.71-.2a.756.756,0,0,0-.046-1.512Zm-10.29,7.135a8.411,8.411,0,0,1-2.589,1.982c-.012.005-.023.008-.035.014l-.02.013a8.48,8.48,0,0,1-6.391.395l-.029-.013-.026-.005a8.417,8.417,0,0,1-2.82-1.652h0a8.42,8.42,0,0,1-1.976-2.578c0-.007,0-.015-.008-.022s-.015-.022-.021-.035a8.446,8.446,0,0,1,7.076-12.107c.176-.011.35-.016.523-.016a8.437,8.437,0,0,1,6.316,14.026Z" transform="translate(-1302.795 -3850.22)"/></g><g transform="translate(82.266 49.665)"><path d="M1417.192,3901.836l-2.119.032a12.05,12.05,0,0,0-.368-2.545l1-.242a.756.756,0,1,0-.355-1.471l-1.113.269a12.444,12.444,0,0,0-.8-1.661l1.708-1.073a.757.757,0,1,0-.805-1.281l-1.738,1.094a12.308,12.308,0,0,0-1.26-1.43l.487-.545a.757.757,0,1,0-1.128-1.008l-.511.572a12.176,12.176,0,0,0-3.938-1.963l.316-1.791a.757.757,0,1,0-1.49-.263l-.307,1.741a3.38,3.38,0,0,0-.746.033l-.93-1.3a.756.756,0,0,0-1.229.882l.725,1.01a3.35,3.35,0,0,0-1.066,1.268l-.717-.163a.756.756,0,0,0-.336,1.475l.718.163a3.37,3.37,0,0,0,.529,1.808l-.9.569a.756.756,0,0,0,.8,1.281l1.216-.764a3.38,3.38,0,0,0,.976.392l.242.055a5.45,5.45,0,0,1,2.924,1.758l-.724.455a.756.756,0,0,0,.805,1.281l.746-.469a5.436,5.436,0,0,1,.486,2.988l-.65.016a.757.757,0,0,0,.019,1.513h.02l.437-.011a3.383,3.383,0,0,0,1.9,2.844l-.278,1.273a.757.757,0,0,0,.578.9.787.787,0,0,0,.162.017.757.757,0,0,0,.738-.595l.275-1.26a3.356,3.356,0,0,0,1.784-.518c.09-.057.177-.119.26-.182l.844.68a.756.756,0,1,0,.949-1.178l-.833-.671a3.377,3.377,0,0,0,.274-.756,12.443,12.443,0,0,0,.262-1.684l2.178-.033a.757.757,0,1,0-.023-1.513Zm-4.718,4.057a1.863,1.863,0,0,1-2.807-1.991c0-.008,0-.017,0-.025l0-.019a7.01,7.01,0,0,0-5.286-8.352l-.242-.055a1.862,1.862,0,1,1,.829-3.632l.242.055a10.687,10.687,0,0,1,4.538,2.26c.006,0,.009.011.015.016s.03.021.044.032a10.83,10.83,0,0,1,3.217,4.8c.006.021.014.042.021.063a10.667,10.667,0,0,1,.247,5.686A1.85,1.85,0,0,1,1412.475,3905.893Z" transform="translate(-1399.882 -3887.903)"/></g><g transform="translate(60.34 64.756)"><path d="M1344.995,3927.8a3.083,3.083,0,1,0,3.083,3.083A3.086,3.086,0,0,0,1344.995,3927.8Zm0,4.653a1.57,1.57,0,1,1,1.57-1.57A1.572,1.572,0,0,1,1344.995,3932.453Z" transform="translate(-1341.912 -3927.801)"/></g></g></svg>