<svg xmlns="http://www.w3.org/2000/svg" xmlns:xlink="http://www.w3.org/1999/xlink" width="120.257" height="109.386" viewBox="0 0 120.257 109.386"><defs><style>.a{fill:none;}.b{fill:#00864d;}.c{clip-path:url(#a);}.d{fill:#cde2a8;}</style><clipPath id="a"><rect class="a" width="97.675" height="74.064"/></clipPath></defs><g transform="matrix(-0.899, 0.438, -0.438, -0.899, 120.257, 66.568)"><path class="b" d="M3.731,7.181l15.6,8.623,12.656,2.688,11.4-.784L57.341,14.9,49.29,6.267,35.756,1.821,0,0Z" transform="translate(4.654)"/><path class="b" d="M0,0,19.968.959,32.671,2.9l9.723,3.193L52.572,16.353l-7.633,2.492-16.459-.23L14.757,15.729,5.227,9.024Z" transform="translate(20.683 20.542)"/><path class="b" d="M0,2.045,13.28,1.5,32.354,0,47.939.983l9.9,8.942,1.668,9.21L47.939,12.447,35.3,9.558l-9.292,1.521-9.239-.349L6.068,7.684Z" transform="translate(35.721 41.806)"/><path class="b" d="M2.005,3.036,14.131,11.5,26.18,12.985l11.346,3.257,6.2-1.406L35.074,11.5,19.892,2.233,0,0Z" transform="translate(53.944 57.445)"/><path class="b" d="M0,8.729l4.336,8.157,5.92,6.578,3.562,1.11-1.543-6.7L9.128,4.984,1.138,0Z" transform="translate(40.651 49.49)"/><g transform="translate(0 0)"><g class="c" transform="translate(0)"><path class="b" d="M14.319,35.766,8.177,35.3,1.589,23.666,0,9.795,2.816,0,10.8,7.887s2.879,13.9,3.191,14.5.327,13.383.327,13.383" transform="translate(20.752 35.417)"/><path class="b" d="M9.08,43.583,3.612,41.452,0,22.989,1.356.428,3.757,0l9.1,16.137,1.478,17.226Z" transform="translate(0 11.415)"/><path class="d" d="M0,0C3.518.572,7.013,1.243,10.5,1.944S17.47,3.392,20.942,4.168l2.6.589,2.6.6.644.15q.317.071.637.129c.426.078.855.144,1.286.192q.323.037.648.062c.108.009.216.015.325.022l.329.017L31.345,6C34.9,6.2,38.45,6.422,42,6.749c-3.563.1-7.122.089-10.681.051l-1.334-.017-.167,0-.171,0c-.114,0-.228-.007-.341-.012q-.341-.015-.682-.043-.681-.055-1.358-.164-.338-.055-.673-.121L25.934,6.3l-2.608-.564L20.72,5.158Q15.513,3.991,10.329,2.719C6.874,1.866,3.426.982,0,0" transform="translate(11.971 4.44)"/><path class="d" d="M0,0C.658,2.586,1.216,5.19,1.743,7.8s1.009,5.225,1.46,7.847l.332,1.967c.053.324.109.666.151,1s.078.678.1,1.019a17.786,17.786,0,0,1,.022,2.044c-.008.17-.019.341-.031.509l-.036.5-.078.995c-.214,2.653-.46,5.3-.807,7.95-.075-2.668-.048-5.33.01-7.991l.024-1,.015-.5c0-.164.008-.325.009-.488,0-.649-.024-1.3-.087-1.943-.032-.322-.068-.644-.115-.965s-.1-.635-.163-.966L2.2,15.817Q1.529,11.884.96,7.933C.587,5.3.244,2.657,0,0" transform="translate(4.31 17.682)"/><path class="d" d="M0,0C.537,2.544.974,5.1,1.38,7.662c.1.64.2,1.281.294,1.922s.188,1.283.28,1.924.177,1.284.266,1.926l.127.964c.042.321.084.645.129.954a19.564,19.564,0,0,0,.912,3.667c.209.6.453,1.18.717,1.755l.411.88.407.883C6,24.894,7.054,27.265,8.014,29.682c-1.339-2.229-2.586-4.5-3.805-6.793l-.455-.859-.45-.863a18.351,18.351,0,0,1-.817-1.816,19,19,0,0,1-.613-1.9,19.4,19.4,0,0,1-.4-1.955c-.047-.333-.085-.652-.125-.974l-.119-.965c-.075-.644-.155-1.287-.226-1.931S.857,10.342.79,9.7.656,8.408.592,7.763C.341,5.182.12,2.6,0,0" transform="translate(24.617 39.261)"/><path class="d" d="M0,.088c3.379-.1,6.754-.1,10.129-.07l1.265.014c.106,0,.21,0,.317,0l.324.01.162,0,.162.01.324.019a18.048,18.048,0,0,1,2.566.373c.106.021.211.047.316.072L15.881.6c.209.058.418.112.625.175s.415.124.619.2l.308.1.3.113c.407.15.8.322,1.2.5.195.094.393.183.585.282s.388.2.572.3l2.231,1.193L24.55,4.667c.74.405,1.481.808,2.218,1.218l1.107.613.552.309c.182.1.361.2.546.292a19.083,19.083,0,0,0,4.663,1.685c.406.09.816.168,1.229.231.207.032.413.058.622.084s.419.052.628.079l1.256.162c.418.059.837.113,1.255.175-.423,0-.845-.015-1.267-.022l-1.266-.035c-.211-.006-.422-.011-.633-.02s-.425-.018-.638-.033c-.426-.029-.851-.074-1.275-.131a17.751,17.751,0,0,1-4.924-1.459c-.2-.087-.388-.187-.583-.28l-.565-.285-1.127-.575c-.752-.382-1.5-.771-2.25-1.158l-2.243-1.17L19.618,3.163c-.188-.1-.369-.194-.551-.288s-.369-.18-.553-.27-.373-.17-.563-.249-.378-.159-.57-.231a18.157,18.157,0,0,0-2.348-.737A18.849,18.849,0,0,0,12.6.969L12.3.941,12.144.926,11.99.917,11.682.9,11.367.88,10.1.812C6.734.625,3.365.407,0,.088" transform="translate(27.265 25.245)"/><path class="d" d="M0,.012c3.98-.04,7.955.026,11.929.117q1.49.037,2.98.08C15.9.236,16.9.27,17.888.3l2.979.108c.25.009.492.018.751.031s.51.032.764.056.508.053.761.088l.739.1,2.951.422,2.949.435c.982.149,1.965.295,2.947.449l.368.057c.123.019.25.044.375.065.25.046.5.083.749.145l.372.085.186.043.184.05.367.1c.122.035.246.064.366.106a18.161,18.161,0,0,1,5.4,2.714,18.467,18.467,0,0,1,2.27,1.977c.171.184.344.364.511.549l.488.569c.313.387.627.772.937,1.162-.353-.35-.7-.707-1.051-1.059l-.53-.52c-.181-.169-.367-.332-.549-.5a19.375,19.375,0,0,0-2.358-1.77,18.625,18.625,0,0,0-2.581-1.39c-.226-.094-.449-.192-.675-.282l-.684-.258-.694-.228-.7-.2c-.116-.036-.236-.059-.354-.089l-.354-.084L34.589,3.2l-.179-.034L34.053,3.1c-.237-.05-.479-.08-.718-.117-.121-.017-.238-.037-.361-.053l-.37-.047c-.986-.123-1.971-.254-2.956-.382l-2.954-.4-2.952-.41L23,1.588q-.359-.05-.719-.086t-.722-.056l-.738-.036-2.977-.149c-.992-.053-1.985-.1-2.977-.162S12.887.984,11.895.923C7.928.671,3.961.394,0,.012" transform="translate(44.792 46.066)"/><path class="d" d="M0,.418C.308.388.616.365.925.338L1.849.27C2.466.225,3.082.19,3.7.154S4.932.089,5.548.063L6.473.024C6.778.01,7.1,0,7.411,0a17.561,17.561,0,0,1,7.352,1.634c.573.268,1.136.575,1.669.871l1.614.9q1.61.911,3.208,1.845c2.128,1.25,4.24,2.528,6.3,3.895-2.266-1-4.484-2.082-6.686-3.195q-1.652-.835-3.287-1.7l-1.633-.869c-.548-.3-1.07-.578-1.616-.831A19.349,19.349,0,0,0,7.388.795C6.791.762,6.166.751,5.551.726S4.318.678,3.7.65,2.467.59,1.85.55L.925.49C.617.466.308.446,0,.418" transform="translate(61.431 61.894)"/><path class="d" d="M0,0C.165.285.319.574.468.864s.295.583.437.876c.284.587.553,1.179.813,1.774Q2.5,5.3,3.169,7.126l.166.457c.055.151.109.3.166.445.11.3.23.588.352.88.245.583.515,1.156.8,1.723l.22.424.229.426q.23.43.451.866c.147.291.292.583.431.879s.277.593.4.9c-.222-.243-.433-.493-.642-.745s-.412-.507-.613-.763-.4-.515-.593-.776-.392-.529-.574-.8a14.91,14.91,0,0,1-.991-1.728c-.147-.3-.28-.6-.409-.911-.063-.153-.122-.311-.18-.464l-.171-.455Q1.545,5.651.974,3.788C.786,3.167.606,2.542.441,1.911.359,1.6.279,1.28.2.961S.059.324,0,0" transform="translate(45.252 54.421)"/></g></g></g></svg>